<svg id="visual" viewBox="0 0 1920 1080" width="1920" height="1080" xmlns="http://www.w3.org/2000/svg" xmlns:xlink="http://www.w3.org/1999/xlink" version="1.1"><rect x="0" y="0" width="1920" height="1080" fill="#140021"></rect><path d="M0 912L83 912L83 889L167 889L167 766L250 766L250 912L334 912L334 871L417 871L417 959L501 959L501 971L584 971L584 762L668 762L668 808L751 808L751 799L835 799L835 923L918 923L918 1010L1002 1010L1002 1005L1085 1005L1085 952L1169 952L1169 944L1252 944L1252 845L1336 845L1336 1052L1419 1052L1419 892L1503 892L1503 1035L1586 1035L1586 875L1670 875L1670 989L1753 989L1753 1025L1837 1025L1837 764L1920 764L1920 835L1920 1081L1920 1081L1837 1081L1837 1081L1753 1081L1753 1081L1670 1081L1670 1081L1586 1081L1586 1081L1503 1081L1503 1081L1419 1081L1419 1081L1336 1081L1336 1081L1252 1081L1252 1081L1169 1081L1169 1081L1085 1081L1085 1081L1002 1081L1002 1081L918 1081L918 1081L835 1081L835 1081L751 1081L751 1081L668 1081L668 1081L584 1081L584 1081L501 1081L501 1081L417 1081L417 1081L334 1081L334 1081L250 1081L250 1081L167 1081L167 1081L83 1081L83 1081L0 1081Z" fill="#560090"></path><path d="M0 933L83 933L83 994L167 994L167 911L250 911L250 985L334 985L334 848L417 848L417 924L501 924L501 974L584 974L584 1042L668 1042L668 974L751 974L751 990L835 990L835 821L918 821L918 872L1002 872L1002 1001L1085 1001L1085 819L1169 819L1169 1044L1252 1044L1252 817L1336 817L1336 1001L1419 1001L1419 912L1503 912L1503 1006L1586 1006L1586 1032L1670 1032L1670 939L1753 939L1753 1008L1837 1008L1837 795L1920 795L1920 934L1920 1081L1920 1081L1837 1081L1837 1081L1753 1081L1753 1081L1670 1081L1670 1081L1586 1081L1586 1081L1503 1081L1503 1081L1419 1081L1419 1081L1336 1081L1336 1081L1252 1081L1252 1081L1169 1081L1169 1081L1085 1081L1085 1081L1002 1081L1002 1081L918 1081L918 1081L835 1081L835 1081L751 1081L751 1081L668 1081L668 1081L584 1081L584 1081L501 1081L501 1081L417 1081L417 1081L334 1081L334 1081L250 1081L250 1081L167 1081L167 1081L83 1081L83 1081L0 1081Z" fill="#5d009c"></path><path d="M0 1048L83 1048L83 869L167 869L167 864L250 864L250 995L334 995L334 975L417 975L417 890L501 890L501 981L584 981L584 880L668 880L668 1049L751 1049L751 868L835 868L835 879L918 879L918 889L1002 889L1002 978L1085 978L1085 912L1169 912L1169 984L1252 984L1252 945L1336 945L1336 877L1419 877L1419 1031L1503 1031L1503 1027L1586 1027L1586 1001L1670 1001L1670 991L1753 991L1753 885L1837 885L1837 843L1920 843L1920 1054L1920 1081L1920 1081L1837 1081L1837 1081L1753 1081L1753 1081L1670 1081L1670 1081L1586 1081L1586 1081L1503 1081L1503 1081L1419 1081L1419 1081L1336 1081L1336 1081L1252 1081L1252 1081L1169 1081L1169 1081L1085 1081L1085 1081L1002 1081L1002 1081L918 1081L918 1081L835 1081L835 1081L751 1081L751 1081L668 1081L668 1081L584 1081L584 1081L501 1081L501 1081L417 1081L417 1081L334 1081L334 1081L250 1081L250 1081L167 1081L167 1081L83 1081L83 1081L0 1081Z" fill="#6400a8"></path><path d="M0 982L83 982L83 1019L167 1019L167 879L250 879L250 850L334 850L334 1011L417 1011L417 903L501 903L501 941L584 941L584 1040L668 1040L668 929L751 929L751 992L835 992L835 1029L918 1029L918 969L1002 969L1002 959L1085 959L1085 936L1169 936L1169 1052L1252 1052L1252 1009L1336 1009L1336 1044L1419 1044L1419 979L1503 979L1503 1041L1586 1041L1586 986L1670 986L1670 919L1753 919L1753 1050L1837 1050L1837 971L1920 971L1920 986L1920 1081L1920 1081L1837 1081L1837 1081L1753 1081L1753 1081L1670 1081L1670 1081L1586 1081L1586 1081L1503 1081L1503 1081L1419 1081L1419 1081L1336 1081L1336 1081L1252 1081L1252 1081L1169 1081L1169 1081L1085 1081L1085 1081L1002 1081L1002 1081L918 1081L918 1081L835 1081L835 1081L751 1081L751 1081L668 1081L668 1081L584 1081L584 1081L501 1081L501 1081L417 1081L417 1081L334 1081L334 1081L250 1081L250 1081L167 1081L167 1081L83 1081L83 1081L0 1081Z" fill="#6c00b4"></path><path d="M0 994L83 994L83 1015L167 1015L167 937L250 937L250 996L334 996L334 919L417 919L417 1052L501 1052L501 958L584 958L584 1025L668 1025L668 1021L751 1021L751 1039L835 1039L835 1044L918 1044L918 993L1002 993L1002 899L1085 899L1085 1009L1169 1009L1169 942L1252 942L1252 1019L1336 1019L1336 1056L1419 1056L1419 897L1503 897L1503 918L1586 918L1586 876L1670 876L1670 920L1753 920L1753 875L1837 875L1837 901L1920 901L1920 976L1920 1081L1920 1081L1837 1081L1837 1081L1753 1081L1753 1081L1670 1081L1670 1081L1586 1081L1586 1081L1503 1081L1503 1081L1419 1081L1419 1081L1336 1081L1336 1081L1252 1081L1252 1081L1169 1081L1169 1081L1085 1081L1085 1081L1002 1081L1002 1081L918 1081L918 1081L835 1081L835 1081L751 1081L751 1081L668 1081L668 1081L584 1081L584 1081L501 1081L501 1081L417 1081L417 1081L334 1081L334 1081L250 1081L250 1081L167 1081L167 1081L83 1081L83 1081L0 1081Z" fill="#7300c0"></path><path d="M0 929L83 929L83 979L167 979L167 977L250 977L250 983L334 983L334 927L417 927L417 1064L501 1064L501 949L584 949L584 1004L668 1004L668 975L751 975L751 938L835 938L835 980L918 980L918 914L1002 914L1002 982L1085 982L1085 1027L1169 1027L1169 973L1252 973L1252 980L1336 980L1336 927L1419 927L1419 1036L1503 1036L1503 1033L1586 1033L1586 913L1670 913L1670 916L1753 916L1753 913L1837 913L1837 996L1920 996L1920 906L1920 1081L1920 1081L1837 1081L1837 1081L1753 1081L1753 1081L1670 1081L1670 1081L1586 1081L1586 1081L1503 1081L1503 1081L1419 1081L1419 1081L1336 1081L1336 1081L1252 1081L1252 1081L1169 1081L1169 1081L1085 1081L1085 1081L1002 1081L1002 1081L918 1081L918 1081L835 1081L835 1081L751 1081L751 1081L668 1081L668 1081L584 1081L584 1081L501 1081L501 1081L417 1081L417 1081L334 1081L334 1081L250 1081L250 1081L167 1081L167 1081L83 1081L83 1081L0 1081Z" fill="#7b00cc"></path><path d="M0 1028L83 1028L83 1043L167 1043L167 1044L250 1044L250 1067L334 1067L334 952L417 952L417 987L501 987L501 961L584 961L584 973L668 973L668 1035L751 1035L751 1059L835 1059L835 954L918 954L918 1030L1002 1030L1002 1063L1085 1063L1085 976L1169 976L1169 1065L1252 1065L1252 983L1336 983L1336 1050L1419 1050L1419 942L1503 942L1503 955L1586 955L1586 1016L1670 1016L1670 987L1753 987L1753 1010L1837 1010L1837 1031L1920 1031L1920 941L1920 1081L1920 1081L1837 1081L1837 1081L1753 1081L1753 1081L1670 1081L1670 1081L1586 1081L1586 1081L1503 1081L1503 1081L1419 1081L1419 1081L1336 1081L1336 1081L1252 1081L1252 1081L1169 1081L1169 1081L1085 1081L1085 1081L1002 1081L1002 1081L918 1081L918 1081L835 1081L835 1081L751 1081L751 1081L668 1081L668 1081L584 1081L584 1081L501 1081L501 1081L417 1081L417 1081L334 1081L334 1081L250 1081L250 1081L167 1081L167 1081L83 1081L83 1081L0 1081Z" fill="#8200d9"></path><path d="M0 1055L83 1055L83 1068L167 1068L167 990L250 990L250 991L334 991L334 1063L417 1063L417 1055L501 1055L501 1023L584 1023L584 1072L668 1072L668 965L751 965L751 964L835 964L835 967L918 967L918 1035L1002 1035L1002 993L1085 993L1085 1071L1169 1071L1169 979L1252 979L1252 1011L1336 1011L1336 961L1419 961L1419 1020L1503 1020L1503 1063L1586 1063L1586 1042L1670 1042L1670 978L1753 978L1753 1051L1837 1051L1837 1065L1920 1065L1920 977L1920 1081L1920 1081L1837 1081L1837 1081L1753 1081L1753 1081L1670 1081L1670 1081L1586 1081L1586 1081L1503 1081L1503 1081L1419 1081L1419 1081L1336 1081L1336 1081L1252 1081L1252 1081L1169 1081L1169 1081L1085 1081L1085 1081L1002 1081L1002 1081L918 1081L918 1081L835 1081L835 1081L751 1081L751 1081L668 1081L668 1081L584 1081L584 1081L501 1081L501 1081L417 1081L417 1081L334 1081L334 1081L250 1081L250 1081L167 1081L167 1081L83 1081L83 1081L0 1081Z" fill="#8a00e5"></path><path d="M0 1010L83 1010L83 1013L167 1013L167 1057L250 1057L250 1026L334 1026L334 1034L417 1034L417 1004L501 1004L501 1062L584 1062L584 1045L668 1045L668 1010L751 1010L751 1057L835 1057L835 996L918 996L918 1015L1002 1015L1002 999L1085 999L1085 1028L1169 1028L1169 996L1252 996L1252 995L1336 995L1336 1032L1419 1032L1419 1020L1503 1020L1503 1017L1586 1017L1586 1017L1670 1017L1670 995L1753 995L1753 1003L1837 1003L1837 993L1920 993L1920 1058L1920 1081L1920 1081L1837 1081L1837 1081L1753 1081L1753 1081L1670 1081L1670 1081L1586 1081L1586 1081L1503 1081L1503 1081L1419 1081L1419 1081L1336 1081L1336 1081L1252 1081L1252 1081L1169 1081L1169 1081L1085 1081L1085 1081L1002 1081L1002 1081L918 1081L918 1081L835 1081L835 1081L751 1081L751 1081L668 1081L668 1081L584 1081L584 1081L501 1081L501 1081L417 1081L417 1081L334 1081L334 1081L250 1081L250 1081L167 1081L167 1081L83 1081L83 1081L0 1081Z" fill="#9100f2"></path><path d="M0 1045L83 1045L83 1059L167 1059L167 1069L250 1069L250 1069L334 1069L334 1026L417 1026L417 1028L501 1028L501 1048L584 1048L584 1021L668 1021L668 1045L751 1045L751 1067L835 1067L835 1040L918 1040L918 1072L1002 1072L1002 1040L1085 1040L1085 1070L1169 1070L1169 1042L1252 1042L1252 1048L1336 1048L1336 1049L1419 1049L1419 1070L1503 1070L1503 1071L1586 1071L1586 1036L1670 1036L1670 1055L1753 1055L1753 1054L1837 1054L1837 1048L1920 1048L1920 1072L1920 1081L1920 1081L1837 1081L1837 1081L1753 1081L1753 1081L1670 1081L1670 1081L1586 1081L1586 1081L1503 1081L1503 1081L1419 1081L1419 1081L1336 1081L1336 1081L1252 1081L1252 1081L1169 1081L1169 1081L1085 1081L1085 1081L1002 1081L1002 1081L918 1081L918 1081L835 1081L835 1081L751 1081L751 1081L668 1081L668 1081L584 1081L584 1081L501 1081L501 1081L417 1081L417 1081L334 1081L334 1081L250 1081L250 1081L167 1081L167 1081L83 1081L83 1081L0 1081Z" fill="#9900ff"></path></svg>