<svg id="visual" viewBox="0 0 1920 1080" width="1920" height="1080" xmlns="http://www.w3.org/2000/svg" xmlns:xlink="http://www.w3.org/1999/xlink" version="1.1"><rect x="0" y="0" width="1920" height="1080" fill="#140021"></rect><path d="M1021 1080L1320 1080L1320 1016L1221 1016L1221 953L945 953L945 889L1284 889L1284 826L1073 826L1073 762L1143 762L1143 699L1096 699L1096 635L1256 635L1256 572L969 572L969 508L1277 508L1277 445L924 445L924 381L1370 381L1370 318L1097 318L1097 254L1180 254L1180 191L1022 191L1022 127L928 127L928 64L1061 64L1061 0L1920 0L1920 64L1920 64L1920 127L1920 127L1920 191L1920 191L1920 254L1920 254L1920 318L1920 318L1920 381L1920 381L1920 445L1920 445L1920 508L1920 508L1920 572L1920 572L1920 635L1920 635L1920 699L1920 699L1920 762L1920 762L1920 826L1920 826L1920 889L1920 889L1920 953L1920 953L1920 1016L1920 1016L1920 1080L1920 1080Z" fill="#560090"></path><path d="M1246 1080L1183 1080L1183 1016L1328 1016L1328 953L1223 953L1223 889L1184 889L1184 826L1337 826L1337 762L1072 762L1072 699L1305 699L1305 635L1052 635L1052 572L1135 572L1135 508L1363 508L1363 445L1259 445L1259 381L1071 381L1071 318L1101 318L1101 254L1197 254L1197 191L1376 191L1376 127L1027 127L1027 64L1179 64L1179 0L1920 0L1920 64L1920 64L1920 127L1920 127L1920 191L1920 191L1920 254L1920 254L1920 318L1920 318L1920 381L1920 381L1920 445L1920 445L1920 508L1920 508L1920 572L1920 572L1920 635L1920 635L1920 699L1920 699L1920 762L1920 762L1920 826L1920 826L1920 889L1920 889L1920 953L1920 953L1920 1016L1920 1016L1920 1080L1920 1080Z" fill="#5d009c"></path><path d="M1116 1080L1177 1080L1177 1016L1381 1016L1381 953L1365 953L1365 889L1200 889L1200 826L1282 826L1282 762L1232 762L1232 699L1370 699L1370 635L1437 635L1437 572L1426 572L1426 508L1301 508L1301 445L1344 445L1344 381L1356 381L1356 318L1445 318L1445 254L1296 254L1296 191L1162 191L1162 127L1358 127L1358 64L1225 64L1225 0L1920 0L1920 64L1920 64L1920 127L1920 127L1920 191L1920 191L1920 254L1920 254L1920 318L1920 318L1920 381L1920 381L1920 445L1920 445L1920 508L1920 508L1920 572L1920 572L1920 635L1920 635L1920 699L1920 699L1920 762L1920 762L1920 826L1920 826L1920 889L1920 889L1920 953L1920 953L1920 1016L1920 1016L1920 1080L1920 1080Z" fill="#6400a8"></path><path d="M1330 1080L1201 1080L1201 1016L1420 1016L1420 953L1204 953L1204 889L1290 889L1290 826L1402 826L1402 762L1401 762L1401 699L1238 699L1238 635L1487 635L1487 572L1513 572L1513 508L1249 508L1249 445L1460 445L1460 381L1244 381L1244 318L1428 318L1428 254L1397 254L1397 191L1266 191L1266 127L1334 127L1334 64L1427 64L1427 0L1920 0L1920 64L1920 64L1920 127L1920 127L1920 191L1920 191L1920 254L1920 254L1920 318L1920 318L1920 381L1920 381L1920 445L1920 445L1920 508L1920 508L1920 572L1920 572L1920 635L1920 635L1920 699L1920 699L1920 762L1920 762L1920 826L1920 826L1920 889L1920 889L1920 953L1920 953L1920 1016L1920 1016L1920 1080L1920 1080Z" fill="#6c00b4"></path><path d="M1325 1080L1509 1080L1509 1016L1541 1016L1541 953L1466 953L1466 889L1360 889L1360 826L1367 826L1367 762L1425 762L1425 699L1450 699L1450 635L1329 635L1329 572L1534 572L1534 508L1373 508L1373 445L1574 445L1574 381L1405 381L1405 318L1544 318L1544 254L1312 254L1312 191L1336 191L1336 127L1364 127L1364 64L1542 64L1542 0L1920 0L1920 64L1920 64L1920 127L1920 127L1920 191L1920 191L1920 254L1920 254L1920 318L1920 318L1920 381L1920 381L1920 445L1920 445L1920 508L1920 508L1920 572L1920 572L1920 635L1920 635L1920 699L1920 699L1920 762L1920 762L1920 826L1920 826L1920 889L1920 889L1920 953L1920 953L1920 1016L1920 1016L1920 1080L1920 1080Z" fill="#7300c0"></path><path d="M1569 1080L1503 1080L1503 1016L1582 1016L1582 953L1450 953L1450 889L1412 889L1412 826L1384 826L1384 762L1584 762L1584 699L1448 699L1448 635L1628 635L1628 572L1434 572L1434 508L1584 508L1584 445L1450 445L1450 381L1568 381L1568 318L1577 318L1577 254L1530 254L1530 191L1386 191L1386 127L1596 127L1596 64L1567 64L1567 0L1920 0L1920 64L1920 64L1920 127L1920 127L1920 191L1920 191L1920 254L1920 254L1920 318L1920 318L1920 381L1920 381L1920 445L1920 445L1920 508L1920 508L1920 572L1920 572L1920 635L1920 635L1920 699L1920 699L1920 762L1920 762L1920 826L1920 826L1920 889L1920 889L1920 953L1920 953L1920 1016L1920 1016L1920 1080L1920 1080Z" fill="#7b00cc"></path><path d="M1610 1080L1673 1080L1673 1016L1518 1016L1518 953L1656 953L1656 889L1646 889L1646 826L1478 826L1478 762L1532 762L1532 699L1551 699L1551 635L1571 635L1571 572L1602 572L1602 508L1597 508L1597 445L1469 445L1469 381L1661 381L1661 318L1642 318L1642 254L1646 254L1646 191L1664 191L1664 127L1602 127L1602 64L1604 64L1604 0L1920 0L1920 64L1920 64L1920 127L1920 127L1920 191L1920 191L1920 254L1920 254L1920 318L1920 318L1920 381L1920 381L1920 445L1920 445L1920 508L1920 508L1920 572L1920 572L1920 635L1920 635L1920 699L1920 699L1920 762L1920 762L1920 826L1920 826L1920 889L1920 889L1920 953L1920 953L1920 1016L1920 1016L1920 1080L1920 1080Z" fill="#8200d9"></path><path d="M1565 1080L1668 1080L1668 1016L1704 1016L1704 953L1703 953L1703 889L1720 889L1720 826L1693 826L1693 762L1564 762L1564 699L1696 699L1696 635L1639 635L1639 572L1696 572L1696 508L1708 508L1708 445L1692 445L1692 381L1576 381L1576 318L1724 318L1724 254L1591 254L1591 191L1649 191L1649 127L1693 127L1693 64L1628 64L1628 0L1920 0L1920 64L1920 64L1920 127L1920 127L1920 191L1920 191L1920 254L1920 254L1920 318L1920 318L1920 381L1920 381L1920 445L1920 445L1920 508L1920 508L1920 572L1920 572L1920 635L1920 635L1920 699L1920 699L1920 762L1920 762L1920 826L1920 826L1920 889L1920 889L1920 953L1920 953L1920 1016L1920 1016L1920 1080L1920 1080Z" fill="#8a00e5"></path><path d="M1716 1080L1661 1080L1661 1016L1721 1016L1721 953L1657 953L1657 889L1772 889L1772 826L1667 826L1667 762L1657 762L1657 699L1756 699L1756 635L1758 635L1758 572L1692 572L1692 508L1722 508L1722 445L1747 445L1747 381L1749 381L1749 318L1659 318L1659 254L1689 254L1689 191L1728 191L1728 127L1711 127L1711 64L1758 64L1758 0L1920 0L1920 64L1920 64L1920 127L1920 127L1920 191L1920 191L1920 254L1920 254L1920 318L1920 318L1920 381L1920 381L1920 445L1920 445L1920 508L1920 508L1920 572L1920 572L1920 635L1920 635L1920 699L1920 699L1920 762L1920 762L1920 826L1920 826L1920 889L1920 889L1920 953L1920 953L1920 1016L1920 1016L1920 1080L1920 1080Z" fill="#9100f2"></path><path d="M1822 1080L1811 1080L1811 1016L1806 1016L1806 953L1819 953L1819 889L1792 889L1792 826L1766 826L1766 762L1746 762L1746 699L1785 699L1785 635L1815 635L1815 572L1794 572L1794 508L1787 508L1787 445L1787 445L1787 381L1749 381L1749 318L1807 318L1807 254L1794 254L1794 191L1800 191L1800 127L1818 127L1818 64L1754 64L1754 0L1920 0L1920 64L1920 64L1920 127L1920 127L1920 191L1920 191L1920 254L1920 254L1920 318L1920 318L1920 381L1920 381L1920 445L1920 445L1920 508L1920 508L1920 572L1920 572L1920 635L1920 635L1920 699L1920 699L1920 762L1920 762L1920 826L1920 826L1920 889L1920 889L1920 953L1920 953L1920 1016L1920 1016L1920 1080L1920 1080Z" fill="#9900ff"></path></svg>